<?xml version="1.0" encoding="UTF-8" standalone="no"?>
<svg width="24px" height="16px" viewBox="0 0 24 16" version="1.1" xmlns="http://www.w3.org/2000/svg" xmlns:xlink="http://www.w3.org/1999/xlink">
    <!-- Generator: sketchtool 3.7.1 (28215) - http://www.bohemiancoding.com/sketch -->
    <title>1064AD18-4191-492F-8C37-1CDC691B231E</title>
    <desc>Created with sketchtool.</desc>
    <defs></defs>
    <g id="Stickersheet" stroke="none" stroke-width="1" fill="none" fill-rule="evenodd">
        <g id="Add-New-Customer-|-1" transform="translate(-32.000000, -122.000000)">
            <g id="ic_cloud_download_black_24px" transform="translate(32.000000, 118.000000)">
                <g id="Group">
                    <polygon id="Shape" points="0 0 24 0 24 24 0 24"></polygon>
                    <path d="M19.35,10.04 C18.67,6.59 15.64,4 12,4 C9.11,4 6.6,5.64 5.35,8.04 C2.34,8.36 0,10.91 0,14 C0,17.31 2.69,20 6,20 L19,20 C21.76,20 24,17.76 24,15 C24,12.36 21.95,10.22 19.35,10.04 L19.35,10.04 Z M17,13 L12,18 L7,13 L10,13 L10,9 L14,9 L14,13 L17,13 L17,13 Z" id="Shape" fill="#9012FE"></path>
                </g>
            </g>
        </g>
    </g>
</svg>