<?xml version="1.0" encoding="UTF-8" standalone="no"?>
<svg width="16px" height="18px" viewBox="0 0 16 18" version="1.1" xmlns="http://www.w3.org/2000/svg" xmlns:xlink="http://www.w3.org/1999/xlink">
    <!-- Generator: sketchtool 3.7.1 (28215) - http://www.bohemiancoding.com/sketch -->
    <title>EBBFDCDF-CE41-4279-BCB6-501B011AEA0B</title>
    <desc>Created with sketchtool.</desc>
    <defs></defs>
    <g id="Stickersheet" stroke="none" stroke-width="1" fill="none" fill-rule="evenodd">
        <g id="Add-New-Customer-|-1" transform="translate(-18.000000, -350.000000)">
            <g id="ic_assignment_ind_black_24px" transform="translate(16.000000, 350.000000)">
                <g id="Group">
                    <polygon id="Shape" points="0 0 20 0 20 20 0 20"></polygon>
                    <path d="M15.8333333,2.5 L12.35,2.5 C12,1.53333333 11.0833333,0.833333333 10,0.833333333 C8.91666667,0.833333333 8,1.53333333 7.65,2.5 L4.16666667,2.5 C3.25,2.5 2.5,3.25 2.5,4.16666667 L2.5,15.8333333 C2.5,16.75 3.25,17.5 4.16666667,17.5 L15.8333333,17.5 C16.75,17.5 17.5,16.75 17.5,15.8333333 L17.5,4.16666667 C17.5,3.25 16.75,2.5 15.8333333,2.5 L15.8333333,2.5 Z M10,2.5 C10.4583333,2.5 10.8333333,2.875 10.8333333,3.33333333 C10.8333333,3.79166667 10.4583333,4.16666667 10,4.16666667 C9.54166667,4.16666667 9.16666667,3.79166667 9.16666667,3.33333333 C9.16666667,2.875 9.54166667,2.5 10,2.5 L10,2.5 Z M10,5.83333333 C11.3833333,5.83333333 12.5,6.95 12.5,8.33333333 C12.5,9.71666667 11.3833333,10.8333333 10,10.8333333 C8.61666667,10.8333333 7.5,9.71666667 7.5,8.33333333 C7.5,6.95 8.61666667,5.83333333 10,5.83333333 L10,5.83333333 Z M15,15.8333333 L5,15.8333333 L5,14.6666667 C5,13 8.33333333,12.0833333 10,12.0833333 C11.6666667,12.0833333 15,13 15,14.6666667 L15,15.8333333 L15,15.8333333 Z" id="Shape" fill="#000000"></path>
                </g>
            </g>
        </g>
    </g>
</svg>