<?xml version="1.0" encoding="UTF-8" standalone="no"?>
<svg width="12px" height="20px" viewBox="0 0 12 20" version="1.1" xmlns="http://www.w3.org/2000/svg" xmlns:xlink="http://www.w3.org/1999/xlink">
    <!-- Generator: sketchtool 3.7.1 (28215) - http://www.bohemiancoding.com/sketch -->
    <title>0F366C98-14E4-4EAD-B957-EACBE4D2A230</title>
    <desc>Created with sketchtool.</desc>
    <defs></defs>
    <g id="Stickersheet" stroke="none" stroke-width="1" fill="none" fill-rule="evenodd">
        <g id="SIGNIN-|-1" transform="translate(-20.000000, -236.000000)">
            <g id="ic_perm_device_information_black_24px" transform="translate(16.000000, 236.000000)">
                <g id="Group">
                    <polygon id="Shape" points="0 0 20 0 20 20 0 20"></polygon>
                    <path d="M14.1666667,0.841666667 L5.83333333,0.833333333 C4.91666667,0.833333333 4.16666667,1.58333333 4.16666667,2.5 L4.16666667,17.5 C4.16666667,18.4166667 4.91666667,19.1666667 5.83333333,19.1666667 L14.1666667,19.1666667 C15.0833333,19.1666667 15.8333333,18.4166667 15.8333333,17.5 L15.8333333,2.5 C15.8333333,1.58333333 15.0833333,0.841666667 14.1666667,0.841666667 L14.1666667,0.841666667 Z M14.1666667,15.8333333 L5.83333333,15.8333333 L5.83333333,4.16666667 L14.1666667,4.16666667 L14.1666667,15.8333333 L14.1666667,15.8333333 Z" id="Shape" fill="#000000"></path>
                </g>
            </g>
        </g>
    </g>
</svg>