<?xml version="1.0" encoding="UTF-8" standalone="no"?>
<svg width="24px" height="24px" viewBox="0 0 24 24" version="1.1" xmlns="http://www.w3.org/2000/svg" xmlns:xlink="http://www.w3.org/1999/xlink">
    <!-- Generator: sketchtool 3.7.1 (28215) - http://www.bohemiancoding.com/sketch -->
    <title>832E1F49-F84A-4EDA-AFE8-0648AD19EF96</title>
    <desc>Created with sketchtool.</desc>
    <defs></defs>
    <g id="Stickersheet" stroke="none" stroke-width="1" fill="none" fill-rule="evenodd">
        <g id="SIGNIN-|-4" transform="translate(-168.000000, -473.000000)">
            <g id="ic_refresh_black_24px" transform="translate(162.000000, 467.000000)">
                <g id="Group">
                    <path d="M26.475,9.525 C24.3,7.35 21.315,6 18,6 C11.37,6 6.015,11.37 6.015,18 C6.015,24.63 11.37,30 18,30 C23.595,30 28.26,26.175 29.595,21 L26.475,21 C25.245,24.495 21.915,27 18,27 C13.035,27 9,22.965 9,18 C9,13.035 13.035,9 18,9 C20.49,9 22.71,10.035 24.33,11.67 L19.5,16.5 L30,16.5 L30,6 L26.475,9.525 L26.475,9.525 Z" id="Shape" fill="#9012FE"></path>
                    <polygon id="Shape" points="0 0 36 0 36 36 0 36"></polygon>
                </g>
            </g>
        </g>
    </g>
</svg>